<svg width="263" height="116" viewBox="0 0 263 116" fill="none" xmlns="http://www.w3.org/2000/svg">
<rect y="22" width="221" height="94" fill="#070707"/>
<rect x="42" width="221" height="94" fill="#38414A"/>
<path d="M81.0877 64.54C76.9777 64.54 73.7527 63.16 71.4127 60.4C69.0727 57.61 67.9027 53.575 67.9027 48.295C67.9027 45.655 68.2027 43.33 68.8027 41.32C69.4027 39.31 70.2727 37.615 71.4127 36.235C72.5527 34.855 73.9327 33.82 75.5527 33.13C77.2027 32.41 79.0477 32.05 81.0877 32.05C83.8177 32.05 86.0977 32.65 87.9277 33.85C89.7877 35.05 91.2427 36.82 92.2927 39.16L88.0177 41.5C87.4777 40 86.6377 38.815 85.4977 37.945C84.3877 37.045 82.9177 36.595 81.0877 36.595C78.6577 36.595 76.7527 37.42 75.3727 39.07C73.9927 40.72 73.3027 43 73.3027 45.91V50.68C73.3027 53.59 73.9927 55.87 75.3727 57.52C76.7527 59.17 78.6577 59.995 81.0877 59.995C82.9777 59.995 84.5077 59.515 85.6777 58.555C86.8777 57.565 87.7627 56.305 88.3327 54.775L92.4277 57.25C91.3777 59.53 89.9077 61.315 88.0177 62.605C86.1277 63.895 83.8177 64.54 81.0877 64.54ZM117.306 64L114.471 55.495H102.726L99.9814 64H94.8064L105.516 32.59H111.906L122.616 64H117.306ZM108.711 37.27H108.486L103.941 51.13H113.211L108.711 37.27ZM135.941 46.63L132.476 39.97H132.341V64H127.481V32.59H133.151L143.411 49.96L146.876 56.62H147.011V32.59H151.871V64H146.201L135.941 46.63ZM166.85 64L156.545 32.59H161.81L166.805 48.115L169.82 59.05H170L173.06 48.115L178.055 32.59H183.185L172.745 64H166.85ZM205.373 64L202.538 55.495H190.793L188.048 64H182.873L193.583 32.59H199.973L210.683 64H205.373ZM196.778 37.27H196.553L192.008 51.13H201.278L196.778 37.27ZM224.953 64.54C222.313 64.54 220.063 64.06 218.203 63.1C216.373 62.14 214.798 60.85 213.478 59.23L216.988 55.945C218.098 57.295 219.313 58.315 220.633 59.005C221.983 59.695 223.513 60.04 225.223 60.04C227.233 60.04 228.748 59.59 229.768 58.69C230.788 57.79 231.298 56.575 231.298 55.045C231.298 53.815 230.938 52.84 230.218 52.12C229.498 51.4 228.223 50.86 226.393 50.5L223.603 50.005C220.543 49.435 218.248 48.43 216.718 46.99C215.188 45.55 214.423 43.57 214.423 41.05C214.423 39.67 214.678 38.425 215.188 37.315C215.728 36.175 216.463 35.23 217.393 34.48C218.353 33.7 219.508 33.1 220.858 32.68C222.208 32.26 223.723 32.05 225.403 32.05C227.773 32.05 229.828 32.47 231.568 33.31C233.308 34.12 234.793 35.305 236.023 36.865L232.468 40.015C231.658 38.965 230.668 38.125 229.498 37.495C228.328 36.865 226.873 36.55 225.133 36.55C223.333 36.55 221.938 36.91 220.948 37.63C219.958 38.35 219.463 39.4 219.463 40.78C219.463 42.1 219.868 43.09 220.678 43.75C221.488 44.38 222.748 44.86 224.458 45.19L227.248 45.775C230.398 46.375 232.693 47.395 234.133 48.835C235.603 50.275 236.338 52.255 236.338 54.775C236.338 56.245 236.083 57.58 235.573 58.78C235.063 59.98 234.313 61.015 233.323 61.885C232.363 62.725 231.178 63.385 229.768 63.865C228.358 64.315 226.753 64.54 224.953 64.54Z" fill="white"/>
</svg>
